<svg width="199" height="220" viewBox="0 0 199 220" fill="none" xmlns="http://www.w3.org/2000/svg">
<g opacity="0.6" clip-path="url(#clip0)">
<mask id="mask0" style="mask-type:alpha" maskUnits="userSpaceOnUse" x="1" y="-37" width="264" height="280">
<g opacity="0.5">
<path d="M3.15896 67.6161C22.0579 61.5672 43.4495 68.3403 61.3354 75.1879C81.6942 82.9833 101.358 93.1855 119.661 105.528C153.784 128.542 184.61 158.744 208.276 193.802C217.989 208.189 227.324 224.067 231.267 241.522C231.465 242.406 230.264 242.757 230.005 241.895C220.044 208.796 197.67 179.83 175.096 155.623C145.084 123.43 109.829 97.3494 70.5018 80.076C50.3218 71.205 25.1961 61.2797 3.27813 68.074C3.00999 68.1592 2.89082 67.712 3.15896 67.6161Z" fill="white"/>
<path d="M215.081 207.039C202.886 190.841 182.378 180.575 163.022 180.107C157.53 179.979 152.048 180.522 146.556 180.139C142.902 179.883 138.323 179.659 135.384 177.029C133.02 174.92 132.424 171.534 131.709 168.52C130.259 162.418 127.677 158.808 121.729 157.551C115.571 156.252 107.607 157.242 102.949 151.768C100.744 149.181 99.9199 145.677 99.0956 142.397C97.5066 136.082 94.9742 130.523 89.2738 127.445C84.3281 124.772 78.866 125.858 73.6521 124.548C70.4047 123.728 67.5048 121.961 65.1014 119.479C60.1458 114.346 57.7326 107.147 54.0779 101.034C51.4561 96.6468 48.1491 92.9408 43.3225 91.5457C38.6649 90.1933 33.6199 90.8855 29.131 88.7662C24.9699 86.7961 22.9141 82.8451 20.5108 78.9368C16.3695 72.1637 10.4903 68.3725 2.79371 69.1286C1.63177 69.2458 1.65163 67.3289 2.79371 67.2011C12.0098 66.1468 18.1571 71.3863 22.8347 79.3202C26.6979 85.8696 30.5114 87.9462 37.5625 88.8088C41.4654 89.288 45.2988 89.7673 48.6555 92.1528C54.1077 96.0185 56.8984 102.738 59.9174 108.691C61.8341 112.461 63.8899 116.306 66.9288 119.181C71.8844 123.856 77.7835 123.217 83.8712 124.24C91.2203 125.475 96.9008 130.693 99.3042 138.233C100.983 143.483 101.271 149.841 106.256 152.929C110.248 155.389 115.214 155.261 119.643 155.922C126.356 156.923 130.667 159.585 132.504 166.859C133.05 169.01 133.318 171.257 134.311 173.238C136.595 177.796 141.402 178.211 145.643 178.552C151.721 179.031 157.838 178.243 163.926 178.467C183.5 179.212 203.571 189.979 215.488 206.698C215.677 206.954 215.27 207.295 215.081 207.039Z" fill="white"/>
<path d="M141.6 74.2826C146.496 74.9109 149.346 77.8289 152.097 82.0354C157.459 90.2249 160.876 96.8808 168.89 102.685C172.197 105.081 175.524 107.062 178.563 109.255C178.414 109.905 178.285 110.555 178.186 111.215C175.723 109.426 173.051 107.86 170.43 106.071C165.325 102.589 160.429 98.5315 156.794 93.2813C151.61 85.7947 149.942 76.2421 139.196 75.6351C134.618 75.3795 131.589 76.5616 127.17 74.453C122.532 72.2379 119.056 67.8503 115.381 64.2721C112.541 61.5033 109.383 58.4362 105.56 57.2648C100.107 55.6035 95.6483 58.0102 90.6728 59.4692C85.9754 60.843 81.3673 61.5033 76.511 60.6833C70.0757 59.597 65.5868 55.497 59.5984 53.2925C49.6275 49.6185 46.7177 57.925 39.2594 60.8217C35.5452 62.2594 31.4337 61.4181 27.6003 61.2477C18.9106 60.8749 10.211 61.4607 3.94444 68.7129C2.98112 69.8311 1.50138 68.042 2.47463 66.9345C11.502 56.6684 22.4461 60.5661 34.0258 59.4586C42.1792 58.6812 45.3571 50.5556 52.8849 49.7675C57.2546 49.3096 61.0979 51.8761 64.8519 53.8676C74.6738 59.0645 82.2909 60.0762 92.8974 56.9027C97.267 55.5928 101.498 54.3149 106.006 55.7313C110.972 57.2967 114.617 61.5139 118.291 65.1667C121.767 68.6278 125.203 72.632 129.95 74.0696C133.992 75.2943 137.627 73.7821 141.6 74.2826Z" fill="white"/>
<path d="M189.657 137.328C189.279 134.442 189.031 131.46 188.574 128.542C189.25 129.224 189.955 129.884 190.739 130.448C190.769 130.47 190.799 130.47 190.829 130.491C191.325 134.165 191.623 137.882 192.288 141.502C193.709 149.181 196.479 156.561 199.191 163.802C204.563 178.147 210.74 192.098 215.507 206.699C215.617 207.039 215.17 207.306 215.031 206.954C206.281 184.356 192.904 161.886 189.657 137.328Z" fill="white"/>
<path d="M111.59 155.283C136.388 155.517 161.762 157.008 185.677 164.58C186.372 164.803 186.074 165.975 185.379 165.751C161.276 158.115 136.478 157.221 111.59 155.421C111.501 155.421 111.501 155.283 111.59 155.283Z" fill="white"/>
<path d="M76.9104 123.984C100.417 128.573 125.901 119.031 148.653 128.36C149.268 128.616 149.03 129.66 148.375 129.447C124.808 121.779 100.556 129.969 76.8309 124.303C76.6323 124.25 76.7217 123.941 76.9104 123.984Z" fill="white"/>
<path d="M34.6928 88.798C58.0706 89.224 82.0046 88.9152 104.598 96.2527C105.184 96.4444 104.945 97.4135 104.34 97.2431C81.4981 90.8001 58.1103 90.6085 34.6928 89.256C34.4147 89.2453 34.4048 88.7874 34.6928 88.798Z" fill="white"/>
<path d="M17.8589 73.2925C31.1467 72.3446 44.8417 72.0039 58.0799 73.8462C58.6757 73.9314 58.7155 74.9218 58.0799 74.8792C44.6431 74.006 31.3255 73.3989 17.8589 73.8569C17.5213 73.8675 17.5312 73.3138 17.8589 73.2925Z" fill="white"/>
<path d="M30.0641 59.7678C44.7721 63.9104 58.4869 71.9508 71.8443 79.5545C72.3706 79.8527 71.9039 80.6727 71.3775 80.4064C57.6428 73.3991 44.7224 64.5813 30.0045 60.002C29.8754 59.9594 29.9251 59.7358 30.0641 59.7678Z" fill="white"/>
<path d="M56.1316 50.5132C79.0923 58.0743 90.4237 83.1218 108.329 98.2867C108.886 98.7552 108.101 99.5753 107.555 99.1173C89.5994 83.9844 78.407 59.8102 55.9826 51.0989C55.6449 50.9711 55.784 50.3961 56.1316 50.5132Z" fill="white"/>
<path d="M110.417 58.01C127.29 79.4581 139.059 104.559 150.628 129.543C151.055 130.458 149.774 131.268 149.347 130.341C137.797 105.39 126.069 80.3846 110.139 58.2337C110.02 58.0739 110.288 57.8503 110.417 58.01Z" fill="white"/>
<path d="M190.738 137.977C192.347 153.238 195.525 167.891 200.302 182.385C200.54 183.099 199.478 183.408 199.249 182.694C194.512 168.317 190.967 153.27 190.391 137.977C190.381 137.732 190.719 137.743 190.738 137.977Z" fill="white"/>
<path d="M178.892 158.137C171.871 150.512 170.699 138.425 168.167 128.531C164.919 115.805 161.304 103.43 156.319 91.354C156.1 90.8109 156.805 90.3423 157.073 90.8854C162.158 101.056 165.604 112.355 168.315 123.483C171.176 135.23 172.963 147.573 179.071 157.998C179.13 158.105 178.982 158.233 178.892 158.137Z" fill="white"/>
<path d="M134.063 159.926C146.755 159.681 159.636 160.746 172.03 163.802C172.218 163.845 172.139 164.154 171.95 164.122C159.407 161.566 146.854 159.969 134.063 160.064C133.974 160.064 133.974 159.926 134.063 159.926Z" fill="white"/>
<path d="M144.809 162.833C158.027 162.929 171.434 165.091 183.917 169.819C184.096 169.883 184.017 170.181 183.838 170.117C171.116 165.772 158.186 163.195 144.799 163.046C144.67 163.057 144.67 162.833 144.809 162.833Z" fill="white"/>
<path d="M155.343 166.486C160.15 167.444 164.967 168.36 169.773 169.372C169.902 169.404 169.843 169.606 169.724 169.585C164.927 168.605 160.14 167.53 155.343 166.507C155.324 166.496 155.334 166.486 155.343 166.486Z" fill="white"/>
<path d="M162.149 171.672C164.214 171.885 166.29 172.226 168.296 172.801C168.455 172.844 168.385 173.11 168.226 173.068C166.21 172.535 164.214 172.077 162.149 171.822C162.049 171.811 162.049 171.662 162.149 171.672Z" fill="white"/>
<path d="M174.522 141.939C171.791 132.28 169.537 122.483 167.759 112.579C167.7 112.259 168.166 112.121 168.226 112.44C169.934 122.365 172.129 132.174 174.8 141.854C174.86 142.046 174.582 142.131 174.522 141.939Z" fill="white"/>
<path d="M175.902 135.741C173.4 129.628 171.095 122.546 171.125 115.784C171.125 115.518 171.513 115.443 171.572 115.72C172.208 119.085 172.496 122.482 173.27 125.826C174.045 129.159 175.048 132.408 176.26 135.581C176.339 135.805 175.992 135.964 175.902 135.741Z" fill="white"/>
<path d="M176.587 127.456C176.229 125.88 175.872 124.293 175.544 122.706C175.494 122.472 175.832 122.365 175.882 122.61C176.209 124.197 176.487 125.805 176.785 127.403C176.805 127.53 176.617 127.594 176.587 127.456Z" fill="white"/>
<path d="M189.24 143.014C188.068 137.7 186.836 132.131 186.707 126.646C186.697 126.38 187.104 126.305 187.154 126.582C188.048 132.024 188.465 137.519 189.518 142.94C189.548 143.121 189.289 143.195 189.24 143.014Z" fill="white"/>
<path d="M198.796 188.817C193.413 185.09 187.733 183.045 181.635 181.139C181.357 181.054 181.476 180.638 181.754 180.692C187.852 181.714 193.83 184.983 198.875 188.679C198.955 188.732 198.875 188.881 198.796 188.817Z" fill="white"/>
<path d="M192.329 181.948C189.756 180.639 187.115 179.574 184.473 178.455C184.195 178.338 184.304 177.848 184.602 177.955C187.323 178.913 189.925 180.287 192.448 181.725C192.587 181.799 192.468 182.012 192.329 181.948Z" fill="white"/>
<path d="M97.6863 128.978C111.908 128.34 126.794 128.478 140.817 131.364C140.976 131.396 140.946 131.683 140.777 131.673C133.597 130.917 126.496 129.852 119.286 129.415C112.096 128.978 104.886 128.925 97.6863 129.202C97.5473 129.202 97.5473 128.978 97.6863 128.978Z" fill="white"/>
<path d="M109.731 131.992C116.514 131.747 123.297 131.939 130.06 132.546C130.209 132.557 130.209 132.812 130.06 132.791C123.297 132.141 116.514 131.907 109.731 132.109C109.652 132.12 109.652 131.992 109.731 131.992Z" fill="white"/>
<path d="M113.336 135.741C120.476 135.197 127.706 135.102 134.837 135.879C134.996 135.9 134.996 136.156 134.837 136.145C127.657 135.655 120.526 135.442 113.336 135.922C113.227 135.932 113.227 135.751 113.336 135.741Z" fill="white"/>
<path d="M113.585 152.514C129.853 152.418 146.06 153.792 162.109 156.646C162.317 156.688 162.228 157.029 162.019 156.997C146.011 154.175 129.813 152.738 113.585 152.727C113.466 152.716 113.466 152.514 113.585 152.514Z" fill="white"/>
<path d="M122.414 150.054C129.594 150.214 136.764 150.533 143.925 151.034C144.113 151.045 144.113 151.364 143.925 151.343C136.764 150.8 129.594 150.427 122.414 150.235C122.305 150.235 122.305 150.054 122.414 150.054Z" fill="white"/>
<path d="M140.914 143.845C147.746 144.899 155.036 142.652 161.66 145.197C161.878 145.283 161.789 145.645 161.561 145.57C154.738 143.568 147.786 145.166 140.884 143.951C140.824 143.941 140.854 143.834 140.914 143.845Z" fill="white"/>
<path d="M145.601 141.662C149.683 141.95 153.795 142.099 157.856 142.589C158.035 142.61 158.045 142.908 157.856 142.897C153.765 142.727 149.673 142.216 145.601 141.843C145.492 141.843 145.492 141.651 145.601 141.662Z" fill="white"/>
<path d="M149.603 119.798C144.518 108.542 138.778 97.7221 132.8 86.9981C132.651 86.7425 133.028 86.5082 133.177 86.7638C139.454 97.2641 144.886 108.382 149.822 119.66C149.901 119.82 149.673 119.958 149.603 119.798Z" fill="white"/>
<path d="M145.722 106.263C143.626 101.524 141.292 96.8172 139.524 91.9291C139.465 91.7587 139.723 91.6416 139.803 91.8013C142.097 96.4232 143.884 101.397 145.861 106.167C145.9 106.285 145.761 106.37 145.722 106.263Z" fill="white"/>
<path d="M151.958 111.982C148.074 103.015 143.685 94.3253 139.683 85.4223C139.554 85.1348 139.931 84.8899 140.09 85.1668C144.698 93.6863 148.482 102.834 152.216 111.812C152.285 112.003 152.037 112.163 151.958 111.982Z" fill="white"/>
<path d="M149.417 99.1177C147.788 95.9335 146.13 92.7173 144.7 89.4266C144.6 89.203 144.898 89.0113 145.017 89.2349C146.666 92.4085 148.106 95.7524 149.546 99.0431C149.576 99.1283 149.457 99.2135 149.417 99.1177Z" fill="white"/>
<path d="M169.784 141.864C165.961 126.188 160.935 111.045 155.424 95.9758C155.334 95.7415 155.712 95.5711 155.811 95.8054C161.879 110.566 166.407 126.146 170.022 141.8C170.062 141.96 169.824 142.024 169.784 141.864Z" fill="white"/>
<path d="M163.718 128.648C162.178 123.824 160.559 119.01 159.149 114.144C159.06 113.856 159.477 113.739 159.566 114.016C161.145 118.819 162.536 123.707 163.996 128.563C164.055 128.755 163.777 128.829 163.718 128.648Z" fill="white"/>
<path d="M138.81 114.048C130.2 97.0729 120.398 81.0135 110.219 65.0925C110.06 64.8476 110.427 64.6346 110.586 64.8689C121.342 80.2467 130.617 96.9664 139.029 113.92C139.098 114.059 138.89 114.197 138.81 114.048Z" fill="white"/>
<path d="M129.424 103.846C124.836 96.1356 120.178 88.4573 115.768 80.63C115.689 80.4915 115.888 80.3744 115.967 80.5022C120.664 88.1379 125.104 95.9546 129.622 103.718C129.702 103.856 129.503 103.984 129.424 103.846Z" fill="white"/>
<path d="M119.365 92.6959C118.442 91.1198 117.528 89.5436 116.604 87.9569C116.475 87.7439 116.793 87.5416 116.922 87.7545C117.826 89.3413 118.72 90.9387 119.624 92.5255C119.713 92.7065 119.465 92.8663 119.365 92.6959Z" fill="white"/>
<path d="M102.213 89.341C96.5128 81.8332 90.2959 74.8365 84.4962 67.4351C84.3373 67.2328 84.5855 66.9665 84.7643 67.1476C91.1699 73.8674 96.8306 81.6308 102.402 89.1387C102.501 89.2771 102.322 89.4795 102.213 89.341Z" fill="white"/>
<path d="M101.192 82.6532C98.8683 79.4158 96.2266 76.4233 93.9326 73.1752C93.8035 72.9942 94.0716 72.7918 94.2206 72.9409C96.9218 75.7737 99.1861 79.2561 101.391 82.5361C101.49 82.6532 101.282 82.781 101.192 82.6532Z" fill="white"/>
<path d="M100.396 77.2643C100.167 76.9981 99.9291 76.7319 99.7007 76.4656C99.5716 76.3165 99.7801 76.0822 99.9192 76.2313C100.148 76.4976 100.386 76.7638 100.614 77.0301C100.743 77.1898 100.535 77.4241 100.396 77.2643Z" fill="white"/>
<path d="M54.3163 93.9205C69.9379 93.4732 86.0263 94.4956 101.31 98.1803C101.578 98.2442 101.459 98.6595 101.201 98.6169C85.5993 95.8374 70.1564 93.9205 54.3163 94.0909C54.2071 94.0909 54.2071 93.9205 54.3163 93.9205Z" fill="white"/>
<path d="M65.4104 96.8916C72.6303 97.4773 79.8602 97.9352 87.0702 98.6274C87.239 98.6381 87.239 98.9256 87.0702 98.9043C79.8503 98.4038 72.6303 97.669 65.4104 97.0513C65.3111 97.0513 65.3111 96.8809 65.4104 96.8916Z" fill="white"/>
<path d="M91.5584 121.577C103.446 121.14 115.542 120.619 127.42 121.396C127.648 121.407 127.658 121.779 127.42 121.79C115.463 121.96 103.525 121.545 91.5584 121.95C91.3399 121.96 91.3399 121.588 91.5584 121.577Z" fill="white"/>
<path d="M73.1863 118.127C85.3618 117.562 97.6069 117.232 109.792 117.658C110.021 117.669 110.021 118.031 109.792 118.031C97.5771 117.914 85.3916 117.85 73.1863 118.34C73.0473 118.35 73.0473 118.137 73.1863 118.127Z" fill="white"/>
<path d="M83.1856 115.241C88.6477 115.667 94.0701 115.518 99.5322 115.688C99.7209 115.699 99.7209 115.986 99.5322 115.997C94.1297 116.444 88.5782 115.986 83.1856 115.507C83.0267 115.486 83.0267 115.22 83.1856 115.241Z" fill="white"/>
<path d="M36.7176 85.7524C43.1231 85.9335 49.5188 86.1145 55.9243 86.2956C62.3001 86.4766 68.7752 86.3488 75.1311 86.9558C75.4489 86.9878 75.4687 87.499 75.1311 87.499C68.7553 87.6587 62.3001 87.073 55.9243 86.7961C49.5188 86.5192 43.1231 86.253 36.7176 85.9761C36.5785 85.9867 36.5785 85.7524 36.7176 85.7524Z" fill="white"/>
<path d="M42.132 84.1446C50.0372 85.2095 57.8231 85.2202 65.768 85.0072C65.9766 84.9965 65.9667 85.3267 65.768 85.348C57.9423 86.0721 49.8981 85.4651 42.132 84.3576C42.0029 84.3363 42.0029 84.1233 42.132 84.1446Z" fill="white"/>
<path d="M45.2693 81.8119C49.8277 82.1421 54.3762 82.2699 58.9445 82.1847C59.1928 82.1847 59.1928 82.5893 58.9445 82.5893C54.3762 82.6532 49.8277 82.5042 45.2693 82.1634C45.0508 82.1527 45.0508 81.7906 45.2693 81.8119Z" fill="white"/>
<path d="M32.9352 78.3935C42.042 77.9037 51.1489 77.4138 60.2557 76.9239C60.5834 76.9026 60.5834 77.4564 60.2557 77.467C51.1489 77.8717 42.042 78.2657 32.9352 78.6704C32.7664 78.681 32.7664 78.4042 32.9352 78.3935Z" fill="white"/>
<path d="M50.3049 61.0347C54.9129 63.6332 59.4713 66.3275 63.9701 69.1496C68.4391 71.9505 73.0968 74.6448 77.2877 77.8929C77.4864 78.042 77.3175 78.3721 77.099 78.2443C72.5307 75.6032 68.2008 72.4084 63.7318 69.5756C59.2528 66.7322 54.754 63.9207 50.2354 61.1412C50.1758 61.1093 50.2354 61.0028 50.3049 61.0347Z" fill="white"/>
<path d="M62.3204 64.1339C66.9185 66.7217 71.5067 69.6183 75.5089 73.1859C75.7175 73.367 75.4394 73.761 75.2209 73.5906C70.9903 70.268 66.8391 67.0199 62.241 64.283C62.1416 64.2297 62.2211 64.0806 62.3204 64.1339Z" fill="white"/>
<path d="M68.9642 64.8581C70.2056 65.7526 71.4569 66.7111 72.5096 67.8506C72.599 67.9464 72.4699 68.0742 72.3805 67.989C71.2285 66.9773 70.1063 65.9337 68.8748 65.0178C68.7855 64.9539 68.8649 64.7942 68.9642 64.8581Z" fill="white"/>
<path d="M21.0374 70.598C27.2642 70.8749 33.491 70.6832 39.7178 70.8962C39.9958 70.9068 39.9958 71.3435 39.7178 71.3648C33.5208 71.7376 27.2244 71.2796 21.0374 70.8642C20.8884 70.8536 20.8785 70.5873 21.0374 70.598Z" fill="white"/>
<path d="M23.4615 69.171C26.4607 69.8419 29.2811 69.7035 32.3001 69.7141C32.4491 69.7141 32.4988 69.9697 32.3399 70.0017C29.4499 70.6087 26.2422 70.0975 23.4118 69.3733C23.2728 69.352 23.3324 69.1497 23.4615 69.171Z" fill="white"/>
<path d="M128.523 113.068C124.252 109.991 117.906 110.076 112.961 109.288C106.922 108.329 100.865 107.19 94.7569 106.849C83.7036 106.242 72.5013 107.648 61.438 107.914C61.2394 107.914 61.2394 107.594 61.438 107.584C67.3073 107.211 73.1965 107.019 79.0757 106.764C84.9449 106.508 90.8341 106.082 96.7034 106.508C102.364 106.913 107.975 107.956 113.576 108.84C118.433 109.607 124.57 109.554 128.642 112.855C128.741 112.951 128.642 113.153 128.523 113.068Z" fill="white"/>
<path d="M230.266 241.819C226.204 230.041 223.542 217.847 222.658 205.313C221.715 191.841 223.115 178.572 224.645 165.228C227.316 141.938 226.482 118.413 221.983 95.3998C219.957 85.0059 217.087 74.4949 212.132 65.2405C209.251 59.8625 205.716 54.8572 202.161 49.9798C191.425 35.2622 179.548 21.4499 167.144 8.32972C151.899 -7.78292 135.583 -23.1927 117.369 -35.365C116.753 -35.7804 117.309 -36.8134 117.945 -36.4193C134.053 -26.3343 148.394 -13.129 161.93 0.555609C175.545 14.336 188.495 28.9897 200.323 44.5592C209.341 56.4227 216.769 68.2543 220.97 83.057C226.83 103.685 229.481 126.411 228.428 147.955C227.664 163.546 224.476 178.892 224.228 194.525C223.969 210.489 226.373 226.441 231.03 241.596C231.179 242.117 230.435 242.32 230.266 241.819Z" fill="white"/>
<path d="M149.793 94.2086C148.879 92.4408 147.965 90.673 147.062 88.9052C146.952 88.6815 147.27 88.4898 147.379 88.7135C148.253 90.5026 149.117 92.3023 149.991 94.0915C150.051 94.2299 149.862 94.3471 149.793 94.2086Z" fill="white"/>
<path d="M222.519 203.557C221.784 198.222 220.126 193.067 217.156 188.658C214.068 184.068 209.45 181.108 206.302 176.614C201.167 169.308 202.717 160.352 202.26 151.833C201.684 141.045 195.665 135.635 188.436 129.224C183.808 125.113 179.051 120.374 178.256 113.633C177.084 103.622 185.993 93.9314 181.474 84.1659C178.087 76.8391 170.003 73.4951 164.879 67.8083C159.397 61.7275 158.315 53.7297 157.897 45.6148C157.302 33.9963 156.299 23.2509 148.264 14.5184C145.364 11.3661 141.074 9.52379 139.326 5.3492C138.333 2.98502 138.224 0.2907 137.529 -2.16933C136.675 -5.18312 135.423 -8.23952 134.212 -11.0936C132.911 -14.1606 131.352 -17.4194 129.077 -19.7835C127.23 -21.7004 124.847 -22.9038 122.88 -24.6716C119.663 -27.5683 117.657 -31.253 116.634 -35.598C116.306 -37.0037 118.312 -37.6001 118.66 -36.1944C120.259 -29.6449 124.022 -26.94 128.889 -23.2446C131.977 -20.9017 134.132 -17.6536 135.86 -14.0754C137.757 -10.1564 139.436 -5.6943 140.389 -1.41321C140.985 1.2385 141.193 4.34815 142.981 6.49934C144.719 8.57598 147.549 10.0882 149.436 12.101C155.196 18.2244 158.493 26.2221 159.357 34.8163C160.42 45.4018 158.513 57.3505 165.852 65.8488C170.728 71.4824 177.879 74.6027 182.07 80.9817C186.718 88.0529 184.175 95.4969 181.941 102.983C180.411 108.095 179.468 113.228 181.931 118.202C183.808 121.982 187.035 124.815 190.074 127.477C195.238 131.993 201.028 136.455 203.322 143.483C207.056 154.942 201.485 167.722 210.006 177.508C213.581 181.608 217.444 184.697 219.967 189.755C222.112 194.058 223.155 198.605 223.324 203.461C223.353 203.93 222.589 204.058 222.519 203.557Z" fill="white"/>
<path d="M223.432 207.572C220.214 183.046 249.263 171.576 250.107 148.414C250.345 142.024 248.518 135.72 249.282 129.33C249.848 124.602 251.934 120.544 254.308 116.604C257.386 111.471 260.564 106.657 262.084 100.662C263.772 93.9844 263.663 86.7215 261.756 80.1082C258.618 69.2883 248.935 62.9306 245.816 52.2385C244.118 46.4133 244.287 40.2366 241.566 34.7308C238.944 29.4167 234.614 25.2421 229.758 22.3561C220.393 16.7971 209.786 16.6587 201.832 8.24558C195.496 1.53641 191.027 -7.90966 183.052 -12.67C172.853 -18.7615 160.29 -13.1812 150.845 -21.6688C145.353 -26.5995 141.699 -32.3502 133.883 -32.872C128.004 -33.266 122.671 -32.2011 117.129 -34.8954C115.888 -35.5024 116.96 -37.5152 118.212 -36.8762C124.17 -33.8092 130.347 -35.6835 136.584 -34.4162C141.222 -33.479 144.579 -30.7421 147.935 -27.3662C153.169 -22.0948 157.479 -18.8147 164.938 -18.1864C170.072 -17.7498 175.365 -18.0799 180.311 -16.2588C188.474 -13.2557 193.589 -5.40704 198.932 1.35537C202.169 5.44477 205.625 9.37442 210.094 11.9196C215.388 14.9334 221.426 15.8812 226.918 18.3839C235.071 22.1112 242.321 28.9162 245.072 38.1812C246.929 44.4325 246.661 50.918 249.789 56.7646C252.48 61.7911 256.463 65.8166 259.353 70.6941C264.507 79.4053 266.036 90.321 263.752 100.321C260.961 112.568 250.315 120.874 250.722 134.08C250.921 140.725 252.49 147.221 251.05 153.834C249.839 159.425 246.919 164.399 243.721 168.925C235.637 180.373 223.025 191.704 223.998 207.497C224.008 207.827 223.481 207.912 223.432 207.572Z" fill="white"/>
<path d="M189.914 129.202C203.45 139.862 215.139 152.695 225.974 166.4C226.471 167.029 225.597 167.923 225.14 167.295C214.871 153.099 202.646 140.831 189.726 129.457C189.597 129.34 189.765 129.085 189.914 129.202Z" fill="white"/>
<path d="M168.484 68.7772C180.104 78.7557 191.376 89.1922 202.379 99.9269C211.784 109.107 221.06 118.542 227.952 130.097C228.26 130.608 227.495 131.087 227.197 130.565C220.136 118.329 210.344 108.659 200.443 99.1281C189.846 88.9366 179.101 78.9261 168.335 68.937C168.216 68.8518 168.375 68.692 168.484 68.7772Z" fill="white"/>
<path d="M153.138 17.319C164.41 27.7342 176.566 36.9886 188.284 46.7968C200.003 56.6049 210.371 67.4887 219.498 80.087C219.885 80.6195 219.17 81.2158 218.813 80.6514C202.138 54.4963 174.053 39.0333 152.95 17.5107C152.82 17.3829 153.009 17.2019 153.138 17.319Z" fill="white"/>
<path d="M194.008 -3.80989C200.86 7.16971 207.176 18.0428 211.278 30.5985C215.409 43.2608 217.127 55.0604 215.201 68.3403C215.072 69.2242 213.791 68.8621 213.939 67.9675C216.184 54.4214 213.622 42.1319 209.441 29.3206C205.687 17.8192 200.443 6.25386 193.849 -3.7034C193.769 -3.80989 193.938 -3.91639 194.008 -3.80989Z" fill="white"/>
<path d="M127.23 -22.0946C136.367 -17.6964 143.249 -9.475 151.69 -3.83078C159.427 1.33421 167.878 5.99868 173.857 13.5705C174.274 14.0923 173.569 14.859 173.142 14.3372C166.885 6.50986 157.937 1.74954 149.972 -3.75624C142.008 -9.26201 135.533 -17.1533 127.051 -21.7645C126.853 -21.8816 127.032 -22.1905 127.23 -22.0946Z" fill="white"/>
<path d="M146.386 -27.9199C149.793 -22.2225 155.086 -18.3354 159.694 -13.8413C164.133 -9.507 168.413 -4.90643 172.316 -0.0183227C179.308 8.74619 185.286 19.0016 188.286 30.141C188.405 30.5776 187.789 30.748 187.65 30.3327C183.568 17.4787 176.726 6.90383 168.125 -2.95758C161.015 -11.1151 151.123 -17.8668 145.741 -27.5046C145.502 -27.9625 146.128 -28.3565 146.386 -27.9199Z" fill="white"/>
<path d="M189.418 91.7802C195.486 96.7109 201.583 101.652 207.135 107.254C212.945 113.132 217.324 119.873 222.121 126.647C222.25 126.828 221.962 127.009 221.833 126.828C217.056 120.086 212.657 113.367 206.897 107.499C201.375 101.887 195.347 96.9026 189.318 91.9506C189.219 91.876 189.318 91.7056 189.418 91.7802Z" fill="white"/>
<path d="M226.342 143.025C218.03 127.541 204.494 116.774 194.166 103.037C194.056 102.887 194.245 102.685 194.364 102.824C205.11 116.093 218.388 127.413 226.491 142.929C226.541 143.036 226.392 143.132 226.342 143.025Z" fill="white"/>
<path d="M220.682 141.023C212.777 132.046 205.159 122.61 196.589 114.357C196.43 114.208 196.658 113.974 196.817 114.112C201.217 117.903 204.941 122.6 208.784 127.019C212.796 131.641 216.799 136.263 220.811 140.895C220.88 140.97 220.761 141.108 220.682 141.023Z" fill="white"/>
<path d="M203.044 135.699C199.22 131.801 195.387 127.914 191.633 123.952C191.514 123.824 191.693 123.633 191.822 123.75C195.665 127.626 199.449 131.567 203.223 135.507C203.332 135.624 203.153 135.816 203.044 135.699Z" fill="white"/>
<path d="M207.882 69.4373C204.347 64.9432 200.156 61.1414 195.995 57.3395C191.545 53.2714 187.067 49.2246 182.548 45.2417C173.153 36.9671 163.45 29.1716 153.827 21.2165C153.589 21.0142 153.817 20.5775 154.065 20.7692C163.639 28.2558 172.885 36.2961 182.081 44.3045C186.62 48.2662 191.138 52.2597 195.587 56.3385C199.987 60.3746 204.436 64.3575 208.061 69.2456C208.15 69.384 207.981 69.5651 207.882 69.4373Z" fill="white"/>
<path d="M156.985 25.5726C169.915 40.3008 186.431 50.7266 199.371 65.4016C199.51 65.5613 199.292 65.7956 199.143 65.6465C185.656 51.6212 169.459 40.7161 156.866 25.7004C156.796 25.6152 156.906 25.498 156.985 25.5726Z" fill="white"/>
<path d="M158.156 29.1187C165.962 38.6394 174.403 47.3613 183.063 55.9767C183.192 56.1045 183.004 56.3068 182.865 56.1897C173.887 48.0641 165.694 38.7778 158.057 29.2146C158.017 29.1507 158.106 29.0442 158.156 29.1187Z" fill="white"/>
<path d="M158.214 34.5817C164.133 42.0151 170.628 48.7349 177.54 55.0926C177.758 55.295 177.45 55.6145 177.232 55.4228C170.171 49.3206 163.795 42.2706 158.055 34.7628C157.956 34.635 158.114 34.4646 158.214 34.5817Z" fill="white"/>
<path d="M189.26 68.8733C203.61 80.6835 216.272 94.6024 226.958 110.268C227.127 110.523 226.74 110.758 226.571 110.513C215.945 94.9112 203.312 80.9711 189.101 69.0969C188.982 68.9904 189.141 68.7774 189.26 68.8733Z" fill="white"/>
<path d="M226.361 114.442C217.323 103.068 206.806 92.9513 196.955 82.4083C196.855 82.3018 197.004 82.1421 197.113 82.2379C202.188 87.5201 207.253 92.8022 212.298 98.1057C217.224 103.292 222.279 108.393 226.579 114.208C226.688 114.367 226.49 114.602 226.361 114.442Z" fill="white"/>
<path d="M211.466 62.6752C213.999 51.44 211.039 39.5871 208.05 28.7353C205.071 17.9155 200.741 7.92626 195.408 -1.77541C195.318 -1.93515 195.537 -2.06294 195.636 -1.91385C201.674 7.52158 205.667 18.6183 208.557 29.5766C210.036 35.1995 211.258 40.9077 212.191 46.669C213.075 52.1322 213.264 57.4037 211.685 62.7497C211.645 62.8881 211.437 62.8243 211.466 62.6752Z" fill="white"/>
<path d="M206.718 33.8363C203.858 20.3648 199.141 7.5428 192.944 -4.56565C192.824 -4.79994 193.152 -5.00228 193.271 -4.76799C199.568 7.28721 204.047 20.3222 206.867 33.7937C206.887 33.9002 206.738 33.9428 206.718 33.8363Z" fill="white"/>
<path d="M199.451 44.3793C199.272 37.9151 198.656 31.4508 197.296 25.1463C195.995 19.0762 193.889 13.4426 191.685 7.70252C191.605 7.50018 191.923 7.36173 192.012 7.55343C197.514 18.533 199.977 31.9833 199.639 44.3793C199.639 44.5071 199.451 44.5071 199.451 44.3793Z" fill="white"/>
<path d="M195.644 28.4371C193.241 18.6183 189.824 9.37458 186.12 0.0562997C186.06 -0.103442 186.269 -0.252536 186.348 -0.0821445C190.559 8.88471 193.499 18.6822 195.793 28.3945C195.823 28.501 195.664 28.5436 195.644 28.4371Z" fill="white"/>
<path d="M190.253 20.2477C188.624 14.1668 186.37 8.37353 183.629 2.77192C183.519 2.54828 183.827 2.35659 183.946 2.56958C186.787 8.13925 188.912 14.0603 190.481 20.1731C190.521 20.3329 190.302 20.3968 190.253 20.2477Z" fill="white"/>
<path d="M155.178 -19.9327C164.463 -12.2651 173.381 -3.87329 181.247 5.45565C181.386 5.62604 181.157 5.88163 181.008 5.71124C172.815 -3.36211 164.324 -11.9562 155.019 -19.709C154.9 -19.8049 155.058 -20.0285 155.178 -19.9327Z" fill="white"/>
<path d="M175.05 15.1781C171.316 6.08341 166.211 -1.5203 160.272 -9.08142C160.143 -9.24117 160.342 -9.4648 160.491 -9.31571C166.956 -2.62785 171.852 6.24316 175.248 15.0822C175.298 15.21 175.099 15.2952 175.05 15.1781Z" fill="white"/>
<path d="M145.831 -3.12776C151.889 1.37697 158.304 4.91259 164.69 8.79965C164.928 8.93809 164.72 9.28952 164.481 9.17238C157.837 6.12663 151.561 1.58996 145.701 -2.90412C145.582 -2.98931 145.701 -3.2236 145.831 -3.12776Z" fill="white"/>
<path d="M148.194 2.06881C153.269 5.19975 158.592 7.51069 163.915 10.0559C164.074 10.1305 163.965 10.4073 163.796 10.3541C158.274 8.56499 152.991 5.45534 148.075 2.2818C147.946 2.20726 148.065 1.99427 148.194 2.06881Z" fill="white"/>
<path d="M147.669 4.12449C154.879 10.0669 162.615 14.6142 170.769 18.8527C170.957 18.9486 170.818 19.3106 170.62 19.2254C162.317 15.6259 154.531 10.2692 147.48 4.40138C147.331 4.28424 147.52 4.00735 147.669 4.12449Z" fill="white"/>
<path d="M204.495 58.2769C194.921 48.3089 184.662 39.3208 174.056 30.6521C173.897 30.5243 174.046 30.2261 174.215 30.3539C185.079 38.586 195.16 48.1279 204.634 58.1171C204.733 58.2236 204.584 58.3727 204.495 58.2769Z" fill="white"/>
<path d="M187.174 38.4155C185.824 37.3079 184.463 36.1897 183.113 35.0715C182.954 34.9437 183.113 34.6456 183.272 34.7734C184.632 35.8703 186.003 36.9671 187.363 38.0534C187.562 38.2238 187.373 38.5752 187.174 38.4155Z" fill="white"/>
<path d="M184.036 75.348C178.037 71.7166 172.357 67.5526 167.014 62.8775C166.766 62.6645 167.123 62.2812 167.361 62.5048C172.625 67.2225 178.226 71.429 184.145 75.135C184.284 75.2202 184.165 75.4332 184.036 75.348Z" fill="white"/>
<path d="M175.584 65.0816C174.621 64.2616 173.697 63.3777 172.823 62.4405C172.644 62.2488 172.923 61.9507 173.101 62.1424C173.945 63.1008 174.849 64.006 175.793 64.858C175.942 64.9964 175.733 65.2094 175.584 65.0816Z" fill="white"/>
<path d="M208.645 200.852C212.925 203.599 221.297 209.307 220.225 215.793C218.954 223.492 207.861 221.639 203.014 220.51C195.576 218.775 186.946 213.418 188.346 203.855C190.074 192.012 202.567 195.793 208.804 200.564C209.549 201.139 208.883 202.438 208.069 201.906C204.544 199.606 200.591 196.858 196.281 197.635C190.918 198.594 188.783 204.132 190.461 209.328C192.676 216.176 200.402 218.455 206.361 219.445C209.062 219.893 212.329 220.319 214.951 219.296C220.155 217.273 218.894 212.704 216.133 209.211C213.849 206.336 210.919 203.865 208.139 201.554C207.741 201.246 208.238 200.596 208.645 200.852Z" fill="white"/>
<path d="M189.407 201.778C185.405 199.861 180.429 197.103 180.529 191.64C180.578 188.818 182.167 183.866 185.465 184.398C186.001 184.483 185.772 185.357 185.236 185.271C182.992 184.92 181.83 188.701 181.542 190.298C181.214 192.151 181.572 193.961 182.505 195.569C184.124 198.37 187.024 199.851 189.685 201.246C190.023 201.427 189.735 201.938 189.407 201.778Z" fill="white"/>
<path d="M191.642 215.41C184.899 217.625 175.276 214.451 172.545 206.975C170.082 200.234 173.627 191.885 180.817 191.576C181.671 191.544 181.671 192.971 180.817 193.003C173.17 193.269 170.936 203.631 175.166 209.329C178.682 214.068 186.16 216.102 191.563 215.09C191.751 215.037 191.841 215.346 191.642 215.41Z" fill="white"/>
<path d="M176.041 194.313C172.665 191.832 165.207 185.389 169.08 180.543C169.259 180.32 169.576 180.565 169.517 180.82C168.335 186.23 173.3 190.341 176.399 193.802C176.637 194.057 176.339 194.526 176.041 194.313Z" fill="white"/>
<path d="M172 202.801C166.866 203.046 162.129 199.521 161.295 193.898C160.629 189.425 162.774 183.632 167.382 183.057C168.077 182.971 168.077 184.143 167.382 184.228C162.198 184.824 161.155 192.652 163.102 196.635C164.84 200.192 168.365 202.066 172 202.204C172.368 202.204 172.368 202.78 172 202.801Z" fill="white"/>
<path d="M202.478 161.65C201.644 160.01 200.561 158.551 199.191 157.391C198.495 156.805 197.641 156.198 196.718 156.262C195.993 156.315 195.486 156.816 194.751 156.762C194.215 156.72 193.808 156.23 193.957 155.644C194.533 153.291 197.76 154.164 199.081 155.186C201.008 156.677 202.21 159.084 202.925 161.459C203.004 161.725 202.617 161.906 202.478 161.65Z" fill="white"/>
<path d="M198.832 156.177C197.362 151.694 198.137 146.241 201.364 142.801C201.95 142.173 202.725 143.089 202.248 143.749C199.587 147.413 198.335 151.406 199.18 156.071C199.229 156.315 198.911 156.411 198.832 156.177Z" fill="white"/>
<path d="M170.283 201.991C170.729 198.903 171.732 194.089 175.198 193.376C175.546 193.301 175.794 193.823 175.447 194.015C174.066 194.803 172.994 195.559 172.179 197.061C171.355 198.583 170.938 200.373 170.511 202.066C170.481 202.226 170.263 202.151 170.283 201.991Z" fill="white"/>
<path d="M168.157 200.48C169.031 199.063 169.309 197.37 170.123 195.932C170.908 194.548 172.109 193.941 173.549 193.611C173.887 193.536 174.026 194.069 173.688 194.164C171.97 194.676 170.818 195.315 170.004 197.082C169.448 198.265 169.06 199.521 168.326 200.597C168.256 200.693 168.077 200.597 168.157 200.48Z" fill="white"/>
<path d="M174.772 194.334C171.108 192.108 168.069 187.763 167.344 183.269C167.294 182.939 167.721 182.801 167.821 183.131C169.241 187.742 171.286 191.193 174.832 194.249C174.881 194.292 174.822 194.366 174.772 194.334Z" fill="white"/>
<path d="M173.788 195.122C170.769 193.418 167.799 190.149 167.303 186.379C167.273 186.166 167.571 185.964 167.68 186.209C169.16 189.798 170.699 192.737 173.947 194.824C174.135 194.941 173.977 195.229 173.788 195.122Z" fill="white"/>
<path d="M172.763 195.985C170.21 194.739 167.559 192.3 166.824 189.276C166.764 189.052 167.072 188.903 167.182 189.116C167.906 190.479 168.473 191.8 169.486 192.971C170.469 194.111 171.611 195.037 172.892 195.74C173.051 195.825 172.912 196.06 172.763 195.985Z" fill="white"/>
<path d="M170.133 196.549C168.812 195.229 167.68 193.749 166.727 192.098C166.637 191.938 166.876 191.789 166.965 191.949C167.879 193.589 168.981 195.08 170.262 196.4C170.352 196.496 170.222 196.645 170.133 196.549Z" fill="white"/>
<path d="M171.247 200.565C168.734 199.063 166.778 196.805 165.586 194.004C165.467 193.728 165.834 193.557 165.944 193.845C167.036 196.635 168.893 198.903 171.306 200.458C171.366 200.501 171.306 200.607 171.247 200.565Z" fill="white"/>
<path d="M166.766 197.997C166.588 197.88 166.409 197.752 166.231 197.635C166.122 197.561 166.221 197.37 166.33 197.444C166.508 197.572 166.677 197.699 166.855 197.816C166.964 197.901 166.865 198.071 166.766 197.997Z" fill="white"/>
<path d="M188.933 202.992C186.867 202.172 184.941 201.075 183.193 199.638C182.001 198.658 180.661 197.487 180.909 195.719C180.949 195.421 181.435 195.421 181.475 195.719C181.932 199.169 186.351 201.47 189.062 202.694C189.211 202.758 189.092 203.056 188.933 202.992Z" fill="white"/>
<path d="M188.822 204.835C186.687 204.089 184.443 202.929 182.894 201.129C182.635 200.831 183.023 200.437 183.301 200.692C185.078 202.226 186.747 203.642 188.882 204.579C189.031 204.643 188.981 204.888 188.822 204.835Z" fill="white"/>
<path d="M188.825 205.995C185.319 205.196 181.526 202.886 179.798 199.371C179.639 199.052 180.046 198.658 180.294 198.967C182.767 202.087 185.15 204.515 188.884 205.804C188.984 205.835 188.944 206.017 188.825 205.995Z" fill="white"/>
<path d="M188.504 207.848C184.919 206.304 181.195 203.823 178.931 200.383C178.712 200.053 179.189 199.68 179.447 199.957C182.278 202.992 184.959 205.644 188.643 207.497C188.832 207.593 188.703 207.934 188.504 207.848Z" fill="white"/>
<path d="M189.169 210.404C186.16 208.956 182.863 207.241 180.469 204.749C180.281 204.557 180.529 204.195 180.747 204.355C183.607 206.357 186.19 208.572 189.268 210.212C189.387 210.276 189.288 210.457 189.169 210.404Z" fill="white"/>
<path d="M180.381 212.066C177.571 211.203 175.098 208.125 175.535 204.845C175.565 204.632 175.843 204.707 175.862 204.888C176.16 208.03 177.511 210.745 180.431 211.853C180.56 211.906 180.51 212.108 180.381 212.066Z" fill="white"/>
<path d="M179.368 209.51C178.285 208.541 177.203 207.252 176.736 205.793C176.667 205.569 176.994 205.42 177.094 205.633C177.799 207.018 178.405 208.274 179.477 209.393C179.557 209.467 179.447 209.584 179.368 209.51Z" fill="white"/>
<path d="M188.446 200.628C189.2 196.794 193.689 196.294 196.718 195.995C200.869 195.591 204.971 196.485 208.149 199.499C208.457 199.797 208 200.277 207.692 199.989C205.11 197.518 201.843 196.507 198.426 196.528C195.397 196.549 189.727 196.879 188.704 200.692C188.664 200.894 188.406 200.82 188.446 200.628Z" fill="white"/>
<path d="M188.446 200.011C192.716 195.442 198.009 192.513 203.59 196.517C203.859 196.709 203.7 197.252 203.352 197.114C200.701 196.091 198.555 194.824 195.626 195.633C192.944 196.368 190.72 198.37 188.654 200.224C188.505 200.351 188.307 200.149 188.446 200.011Z" fill="white"/>
<path d="M204.117 196.475C200.483 193.226 196.133 194.749 192.011 195.74C191.416 195.878 191.177 194.962 191.763 194.76C195.934 193.354 200.93 192.705 204.306 196.283C204.415 196.4 204.237 196.592 204.117 196.475Z" fill="white"/>
<path d="M208.833 201.214C203.192 195.133 196.678 188.893 188.266 192.854C187.859 193.046 187.531 192.482 187.909 192.205C195.536 186.603 204.255 195.346 209.012 201.012C209.131 201.15 208.952 201.342 208.833 201.214Z" fill="white"/>
<path d="M200.044 193.802C196.34 192.47 193.301 193.301 189.746 194.611C189.478 194.707 189.339 194.292 189.557 194.142C192.596 192.013 196.817 192.3 200.094 193.557C200.243 193.61 200.193 193.855 200.044 193.802Z" fill="white"/>
<path d="M197.402 191.863C194.423 190.042 191.702 190.064 188.405 190.298C188.057 190.319 188.027 189.787 188.325 189.67C191.364 188.541 194.989 189.755 197.531 191.629C197.67 191.725 197.551 191.959 197.402 191.863Z" fill="white"/>
<path d="M191.016 186.805C190.321 187.124 189.626 187.454 188.92 187.774C188.722 187.87 188.603 187.572 188.801 187.476C189.506 187.156 190.202 186.847 190.907 186.528C191.056 186.475 191.165 186.741 191.016 186.805Z" fill="white"/>
<path d="M202.616 197.71C200.878 195.346 198.783 193.024 197.363 190.426C197.234 190.181 197.542 189.915 197.73 190.128C199.677 192.3 201.196 195.09 202.845 197.518C202.944 197.657 202.726 197.848 202.616 197.71Z" fill="white"/>
<path d="M197.413 195.559C196.768 194.483 196.182 193.387 195.566 192.3C195.01 191.342 194.285 190.415 193.918 189.361C193.828 189.116 194.156 188.935 194.315 189.105C195.089 189.947 195.576 191.182 196.102 192.215C196.639 193.28 197.145 194.356 197.562 195.484C197.592 195.58 197.463 195.634 197.413 195.559Z" fill="white"/>
<path d="M193.859 197.071C192.995 194.92 192.002 192.769 191.307 190.553C191.237 190.34 191.555 190.191 191.654 190.394C192.647 192.481 193.372 194.749 194.187 196.922C194.266 197.124 193.938 197.284 193.859 197.071Z" fill="white"/>
<path d="M190.522 196.017C189.946 194.739 189.37 193.461 188.794 192.183C188.685 191.938 189.033 191.725 189.132 191.97C189.678 193.269 190.215 194.568 190.761 195.868C190.83 196.038 190.602 196.187 190.522 196.017Z" fill="white"/>
<path d="M187.016 196.283C186.877 195.825 186.728 195.367 186.589 194.909C186.51 194.653 186.887 194.536 186.966 194.792C187.106 195.25 187.245 195.708 187.384 196.166C187.463 196.421 187.096 196.528 187.016 196.283Z" fill="white"/>
<path d="M184.095 195.548C182.605 194.707 181.533 192.204 182.695 190.607C182.834 190.426 183.102 190.628 183.052 190.831C182.844 191.661 182.625 192.343 182.814 193.205C183.003 194.089 183.519 194.835 184.234 195.303C184.373 195.399 184.244 195.634 184.095 195.548Z" fill="white"/>
<path d="M185.517 193.12C185.239 192.748 184.951 192.385 184.673 192.013C184.524 191.81 184.792 191.587 184.931 191.8C185.199 192.183 185.467 192.556 185.725 192.939C185.825 193.078 185.616 193.248 185.517 193.12Z" fill="white"/>
<path d="M190.235 211.565C187.832 208.402 187.136 204.313 188.457 200.468C188.576 200.128 189.093 200.277 188.974 200.617C187.702 204.313 188.199 208.253 190.414 211.405C190.493 211.522 190.314 211.671 190.235 211.565Z" fill="white"/>
<path d="M188.138 210.649C186.122 207.635 185.129 203.003 187.006 199.627C187.135 199.392 187.463 199.552 187.403 199.808C186.539 203.663 186.291 206.964 188.416 210.479C188.526 210.66 188.257 210.83 188.138 210.649Z" fill="white"/>
<path d="M187.055 211.789C185.079 207.912 184.424 202.95 186.291 198.86C186.37 198.69 186.619 198.807 186.569 198.988C185.427 203.429 185.258 207.444 187.274 211.65C187.343 211.81 187.135 211.938 187.055 211.789Z" fill="white"/>
<path d="M184.167 204.728C184.147 203.642 184.137 202.556 184.117 201.469C184.117 201.224 184.465 201.224 184.465 201.469C184.465 202.556 184.455 203.642 184.455 204.728C184.455 204.93 184.167 204.93 184.167 204.728Z" fill="white"/>
<path d="M182.406 202.172C182.446 201.395 182.496 200.628 182.536 199.851C182.555 199.584 182.953 199.584 182.933 199.851C182.873 200.628 182.814 201.395 182.764 202.172C182.744 202.417 182.397 202.417 182.406 202.172Z" fill="white"/>
<path d="M180.413 199.254C180.413 199.361 180.254 199.361 180.254 199.254C180.254 199.148 180.413 199.148 180.413 199.254Z" fill="white"/>
<path d="M169.396 194.601C169.923 193.376 170.389 192.055 171.025 190.895C171.134 190.692 171.472 190.831 171.383 191.054C170.906 192.322 170.211 193.536 169.615 194.739C169.545 194.909 169.327 194.771 169.396 194.601Z" fill="white"/>
<path d="M165.973 189.978C166.281 189.733 166.569 189.488 166.906 189.286C166.996 189.233 167.085 189.361 167.016 189.435C166.728 189.723 166.41 189.946 166.082 190.181C165.963 190.266 165.864 190.064 165.973 189.978Z" fill="white"/>
<path d="M175.039 192.769C176.747 191.683 178.684 190.565 180.66 190.213C181.007 190.149 181.137 190.65 180.809 190.788C178.932 191.566 177.025 192.098 175.198 193.056C175.019 193.142 174.87 192.875 175.039 192.769Z" fill="white"/>
<path d="M173.937 191.757C175.486 190.916 177.026 190.011 178.605 189.234C179.469 188.808 180.363 188.435 181.197 189.084C181.455 189.287 181.237 189.691 180.949 189.542C179.697 188.882 178.069 190.085 176.946 190.618C175.983 191.076 175.03 191.534 174.066 191.992C173.917 192.056 173.788 191.843 173.937 191.757Z" fill="white"/>
<path d="M175.615 188.914C177.452 187.199 179.875 185.996 182.358 186.113C182.765 186.134 182.755 186.752 182.358 186.784C179.905 186.965 177.79 187.54 175.794 189.159C175.664 189.265 175.496 189.031 175.615 188.914Z" fill="white"/>
<path d="M178.822 185.452C180.262 185.058 181.692 184.856 183.162 184.707C183.46 184.675 183.469 185.207 183.162 185.207C181.722 185.197 180.292 185.388 178.881 185.697C178.742 185.729 178.673 185.495 178.822 185.452Z" fill="white"/>
<path d="M179.727 191.981C179.946 189.83 180.353 187.721 181.048 185.698C181.475 184.441 181.882 183.088 183.124 182.577C183.491 182.428 183.749 183.078 183.392 183.259C181.992 183.994 181.515 186.187 181.058 187.678C180.621 189.105 180.313 190.554 180.095 192.023C180.055 192.247 179.708 192.194 179.727 191.981Z" fill="white"/>
<path d="M177.867 192.151C177.937 189.734 178.433 187.423 179.397 185.218C179.704 184.515 180.549 182.066 181.621 183.067C181.84 183.28 181.611 183.738 181.323 183.61C180.658 183.333 179.188 187.519 179.118 187.742C178.652 189.169 178.364 190.649 178.205 192.14C178.185 192.375 177.867 192.396 177.867 192.151Z" fill="white"/>
<path d="M176.292 190.341C176.133 187.668 176.5 184.441 178.069 182.258C178.189 182.087 178.477 182.268 178.407 182.471C177.444 185.165 176.53 187.369 176.61 190.341C176.61 190.554 176.302 190.554 176.292 190.341Z" fill="white"/>
<path d="M173.986 187.06C174.155 186.379 174.284 185.655 174.512 184.994C174.591 184.76 174.909 184.845 174.86 185.101C174.73 185.793 174.492 186.485 174.303 187.156C174.254 187.38 173.936 187.284 173.986 187.06Z" fill="white"/>
<path d="M172.895 185.495C172.975 185.101 173.044 184.697 173.124 184.303C173.174 184.047 173.541 184.154 173.491 184.409C173.412 184.803 173.332 185.197 173.253 185.602C173.193 185.847 172.846 185.74 172.895 185.495Z" fill="white"/>
<path d="M170.392 183.876C170.362 183.663 170.322 183.45 170.292 183.248C170.253 182.993 170.59 182.886 170.66 183.142C170.709 183.344 170.759 183.557 170.809 183.759C170.888 184.057 170.441 184.175 170.392 183.876Z" fill="white"/>
<path d="M202.607 172.141C200.164 167.593 197.721 161.992 196.778 156.827C196.728 156.539 197.115 156.316 197.245 156.614C198.258 158.989 198.903 161.534 199.767 163.973C200.73 166.688 201.823 169.34 202.786 172.056C202.836 172.173 202.667 172.247 202.607 172.141Z" fill="white"/>
<path d="M198.298 157.402C198.606 154.345 198.814 150.842 199.877 147.977C199.946 147.785 200.274 147.785 200.244 148.03C199.867 151.172 198.934 154.228 198.576 157.402C198.546 157.594 198.278 157.594 198.298 157.402Z" fill="white"/>
<path d="M198.037 160.81C197.521 159.564 197.124 158.222 197.094 156.848C197.094 156.656 197.382 156.603 197.412 156.805C197.59 158.158 197.809 159.425 198.305 160.692C198.375 160.852 198.107 160.98 198.037 160.81Z" fill="white"/>
<path d="M199.191 161.598C199.956 161.193 200.77 160.98 201.634 160.98C201.962 160.98 201.962 161.534 201.634 161.523C200.86 161.502 200.115 161.64 199.41 161.981C199.162 162.098 198.943 161.725 199.191 161.598Z" fill="white"/>
<path d="M199.318 157.082C199.318 157.347 198.941 157.347 198.941 157.082C198.941 156.827 199.318 156.827 199.318 157.082Z" fill="white"/>
<path d="M200.622 217.241C195.478 214.738 189.281 210.915 189.539 203.94C189.559 203.492 190.185 203.482 190.195 203.94C190.393 210.713 195.736 214.174 200.751 216.996C200.9 217.092 200.771 217.315 200.622 217.241Z" fill="white"/>
<path d="M199.231 214.121C195.646 212.3 192.1 208.636 191.475 204.249C191.445 204.015 191.763 203.802 191.872 204.068C193.55 208.264 195.427 211.714 199.31 213.982C199.39 214.036 199.31 214.163 199.231 214.121Z" fill="white"/>
<path d="M197.693 209.574C196.57 208.509 195.726 207.231 195.081 205.793C194.971 205.559 195.299 205.41 195.389 205.655C195.905 207.114 196.769 208.381 197.832 209.435C197.921 209.52 197.782 209.659 197.693 209.574Z" fill="white"/>
<path d="M197.37 205.387C197.37 205.577 197.094 205.577 197.094 205.387C197.094 205.197 197.37 205.197 197.37 205.387Z" fill="white"/>
</g>
</mask>
<g mask="url(#mask0)">
<rect x="-54" y="-18" width="260" height="260" fill="white"/>
</g>
</g>
<defs>
<clipPath id="clip0">
<rect width="220" height="204" fill="white" transform="matrix(-4.37114e-08 1 1 4.37114e-08 0 0)"/>
</clipPath>
</defs>
</svg>
